<svg xmlns="http://www.w3.org/2000/svg" viewBox="0 0 512 512">
  <!-- White background -->
  <rect width="512" height="512" rx="90" fill="#ffffff"/>

  <!-- === FLAME RING (donut arc, open at bottom) === -->
  <!-- Outer r=175, inner r=110, center (256,220), ~270° arc, open at bottom -->
  <path d="M380 344 A175 175 0 1 0 132 344 L178 298 A110 110 0 1 1 334 298 Z" fill="#c2410c"/>
  <path d="M372 338 A168 168 0 1 0 140 338 L186 294 A103 103 0 1 1 326 294 Z" fill="#ea580c"/>
  <path d="M364 333 A162 162 0 1 0 148 333 L192 291 A97 97 0 1 1 320 291 Z" fill="#f97316"/>

  <!-- Flame spikes on outer ring -->
  <path d="M256 42 L244 75 L256 62 L268 75 Z" fill="#fb923c"/>
  <path d="M256 42 L248 68 L256 58 L264 68 Z" fill="#fcd34d"/>
  <path d="M153 84 L165 118 L182 100 L176 126 Z" fill="#f97316"/>
  <path d="M359 84 L347 118 L330 100 L336 126 Z" fill="#f97316"/>
  <path d="M88 195 L122 210 L110 232 L132 226 Z" fill="#ea580c"/>
  <path d="M424 195 L390 210 L402 232 L380 226 Z" fill="#ea580c"/>
  <path d="M106 316 L136 326 L126 348 L148 340 Z" fill="#c2410c"/>
  <path d="M406 316 L376 326 L386 348 L364 340 Z" fill="#c2410c"/>

  <!-- === HAIR WINGS === -->
  <path d="M200 196 C178 170 166 138 175 108 C186 130 191 162 190 188 Z" fill="#c2410c"/>
  <path d="M208 192 C188 163 178 130 188 100 C198 124 202 158 200 186 Z" fill="#ea580c"/>
  <path d="M216 186 C200 155 194 122 206 92 C215 118 218 155 215 182 Z" fill="#f97316"/>
  <path d="M312 196 C334 170 346 138 337 108 C326 130 321 162 322 188 Z" fill="#c2410c"/>
  <path d="M304 192 C324 163 334 130 324 100 C314 124 310 158 312 186 Z" fill="#ea580c"/>
  <path d="M296 186 C312 155 318 122 306 92 C297 118 294 155 297 182 Z" fill="#f97316"/>

  <!-- Center hair peak -->
  <path d="M256 148 C244 122 240 96 256 82 C272 96 268 122 256 148 Z" fill="#fb923c"/>

  <!-- === FACE === -->
  <ellipse cx="256" cy="212" rx="54" ry="58" fill="#fb923c"/>
  <ellipse cx="248" cy="204" rx="30" ry="34" fill="#fbbf24" opacity="0.22"/>

  <!-- === BODY === -->
  <path d="M220 268 C212 290 210 314 216 334 L296 334 C302 314 300 290 292 268 C280 258 266 254 256 254 C246 254 232 258 220 268 Z" fill="#ea580c"/>

  <!-- === ARMS === -->
  <!-- Left -->
  <path d="M222 272 C198 264 170 264 144 272 L146 290 C172 282 200 282 222 288 Z" fill="#f97316"/>
  <path d="M148 270 C126 258 104 260 84 274 C96 268 112 268 128 268 Z" fill="#ea580c"/>
  <path d="M144 282 C120 272 96 276 72 292 C86 284 106 280 128 280 Z" fill="#f97316"/>
  <path d="M140 296 C114 292 88 302 62 320 C80 308 104 303 134 302 Z" fill="#c2410c"/>
  <path d="M132 312 C104 316 76 330 50 352 C74 334 100 328 136 324 Z" fill="#ea580c"/>

  <!-- Right -->
  <path d="M290 272 C314 264 342 264 368 272 L366 290 C340 282 312 282 290 288 Z" fill="#f97316"/>
  <path d="M364 270 C386 258 408 260 428 274 C416 268 400 268 384 268 Z" fill="#ea580c"/>
  <path d="M368 282 C392 272 416 276 440 292 C426 284 406 280 384 280 Z" fill="#f97316"/>
  <path d="M372 296 C398 292 424 302 450 320 C432 308 408 303 378 302 Z" fill="#c2410c"/>
  <path d="M380 312 C408 316 436 330 462 352 C438 334 412 328 376 324 Z" fill="#ea580c"/>

  <!-- === BOTTOM FLAMES === -->
  <path d="M256 330 L240 425 L256 398 L272 425 Z" fill="#f97316"/>
  <path d="M237 334 L212 440 L236 408 Z" fill="#ea580c"/>
  <path d="M275 334 L300 440 L276 408 Z" fill="#ea580c"/>
  <path d="M220 340 L190 455 L217 420 Z" fill="#c2410c"/>
  <path d="M292 340 L322 455 L295 420 Z" fill="#c2410c"/>
</svg>
